<svg width="24" height="25" viewBox="0 0 24 25" fill="none" xmlns="http://www.w3.org/2000/svg">
    <path fill-rule="evenodd" clip-rule="evenodd" d="M7.42245 20.4724C7.84445 20.4724 8.18745 20.8154 8.18745 21.2374C8.18745 21.6594 7.84445 22.0014 7.42245 22.0014C7.00045 22.0014 6.65845 21.6594 6.65845 21.2374C6.65845 20.8154 7.00045 20.4724 7.42245 20.4724Z" stroke="white" stroke-width="1.5" stroke-linecap="round" stroke-linejoin="round"/>
    <path fill-rule="evenodd" clip-rule="evenodd" d="M18.6749 20.4724C19.0969 20.4724 19.4399 20.8154 19.4399 21.2374C19.4399 21.6594 19.0969 22.0014 18.6749 22.0014C18.2529 22.0014 17.9099 21.6594 17.9099 21.2374C17.9099 20.8154 18.2529 20.4724 18.6749 20.4724Z" stroke="white" stroke-width="1.5" stroke-linecap="round" stroke-linejoin="round"/>
    <path d="M2.75 3.9021L4.83 4.2621L5.793 15.7351C5.871 16.6701 6.652 17.3881 7.59 17.3881H18.502C19.398 17.3881 20.158 16.7301 20.287 15.8421L21.236 9.2841C21.353 8.4751 20.726 7.7511 19.909 7.7511H5.164" stroke="white" stroke-width="1.5" stroke-linecap="round" stroke-linejoin="round"/>
    <path d="M14.1255 11.447H16.8985" stroke="white" stroke-width="1.5" stroke-linecap="round" stroke-linejoin="round"/>
    </svg>
    