<svg width="388" height="361" viewBox="0 0 388 361" fill="none" xmlns="http://www.w3.org/2000/svg">
<g clip-path="url(#clip0_810_20936)">
<path d="M261.54 255.919H122.354C110.655 255.919 101.137 246.421 101.137 234.747V95.8628C101.137 84.1888 110.655 74.6914 122.354 74.6914H261.54C273.24 74.6914 282.758 84.1888 282.758 95.8628V234.747C282.758 246.421 273.24 255.919 261.54 255.919ZM122.354 78.0788C112.511 78.0788 104.531 86.041 104.531 95.8628V234.747C104.531 244.569 112.511 252.531 122.354 252.531H219.851C252.718 252.531 279.363 225.944 279.363 193.148V95.8628C279.363 86.041 271.383 78.0788 261.54 78.0788H122.354V78.0788Z" fill="#F2F2F2"/>
<path d="M137.357 92.5195C130.769 92.5195 125.41 97.8669 125.41 104.44V123.099C125.41 129.672 130.769 135.019 137.357 135.019H156.056C162.643 135.019 168.002 129.672 168.002 123.099V104.44C168.002 97.8669 162.643 92.5195 156.056 92.5195H137.357Z" fill="#F2F2F2"/>
<path d="M137.357 145.047C130.769 145.047 125.41 150.394 125.41 156.968V175.626C125.41 182.199 130.769 187.547 137.357 187.547H156.056C162.643 187.547 168.002 182.199 168.002 175.626V156.968C168.002 150.394 162.643 145.047 156.056 145.047H137.357Z" fill="#F2F2F2"/>
<path d="M137.357 197.57C130.769 197.57 125.41 202.918 125.41 209.491V228.149C125.41 234.723 130.769 240.07 137.357 240.07H156.056C162.643 240.07 168.002 234.723 168.002 228.149V209.491C168.002 202.918 162.643 197.57 156.056 197.57H137.357Z" fill="#F2F2F2"/>
<path d="M149.76 47C141.46 47 134.707 53.7379 134.707 62.0204V85.5306C134.707 93.8132 141.46 100.551 149.76 100.551H173.321C181.622 100.551 188.374 93.8132 188.374 85.5306V62.0204C188.374 53.7379 181.622 47 173.321 47H149.76Z" fill="#FF7E00"/>
<path d="M227.326 112.703C219.026 112.703 212.273 119.441 212.273 127.724V151.234C212.273 159.516 219.026 166.254 227.326 166.254H250.888C259.188 166.254 265.941 159.516 265.941 151.234V127.724C265.941 119.441 259.188 112.703 250.888 112.703H227.326Z" fill="#FF7E00"/>
<path d="M193.605 349.341L188.818 349.301L186.699 330.449L193.764 330.509L193.605 349.341Z" fill="#E8D2A3"/>
<path d="M178.274 356.938C178.263 358.113 179.213 359.081 180.395 359.092L189.912 359.171L191.578 355.801L192.19 359.188L195.781 359.221L194.874 347.141L193.625 347.058L188.529 346.708L186.885 346.598L186.856 350.016L179.211 355.19C178.63 355.584 178.279 356.237 178.274 356.938H178.274Z" fill="#2F2E41"/>
<path d="M217.956 349.341L213.17 349.301L211.051 330.449L218.115 330.509L217.956 349.341Z" fill="#E8D2A3"/>
<path d="M202.625 356.938C202.615 358.113 203.564 359.081 204.747 359.092L214.264 359.171L215.93 355.801L216.541 359.188L220.132 359.221L219.226 347.141L217.976 347.058L212.88 346.708L211.236 346.598L211.208 350.016L203.563 355.19C202.981 355.584 202.631 356.237 202.625 356.938Z" fill="#2F2E41"/>
<path d="M174.822 196.926L194.224 197.537L212.605 201.613C212.605 201.613 210.767 203.855 216.894 209.968C216.894 209.968 225.063 224.234 219.345 238.091L216.894 293.522C216.894 293.522 224.04 332.597 218.58 345.033L211.364 345.483L199.154 293.973L193.203 238.499L190.344 293.114C190.344 293.114 201.282 330.602 194.375 345.483L186.56 345.033L173.188 293.114C173.188 293.114 167.47 233.2 168.287 221.788C169.104 210.376 174.822 196.926 174.822 196.926H174.822Z" fill="#2F2E41"/>
<path d="M239.976 109.335C237.324 110.02 235.731 112.721 236.417 115.368C236.732 116.581 237.474 117.567 238.437 118.219L238.437 118.226L238.06 127.32L245.035 130.54L245.591 116.546L245.543 116.548C246.148 115.473 246.356 114.174 246.022 112.886C245.336 110.24 242.629 108.65 239.976 109.335V109.335Z" fill="#E8D2A3"/>
<path d="M200.996 141.792C199.531 140.343 198.681 138.378 198.649 136.242C198.607 133.376 200.046 130.775 202.5 129.284C205.325 127.567 208.858 127.74 211.501 129.726L233.401 146.179L237.304 122.477L245.682 125.168L243.683 156.032C243.543 158.191 242.32 160.093 240.411 161.119C238.503 162.146 236.239 162.12 234.354 161.051L202.705 143.083C202.069 142.722 201.497 142.287 200.996 141.792V141.792Z" fill="#3F3D56"/>
<path d="M167.605 96.0777C169.005 98.4277 168.231 101.465 165.876 102.862C164.796 103.502 163.574 103.682 162.43 103.468L162.425 103.473L156.276 110.195L149.051 107.583L158.529 97.2539L158.563 97.2891C158.892 96.1008 159.66 95.0317 160.806 94.3521C163.161 92.9551 166.205 93.7277 167.605 96.0777Z" fill="#E8D2A3"/>
<path d="M170.261 146.227L135.108 136.752C133.015 136.188 131.389 134.616 130.758 132.546C130.127 130.476 130.601 128.266 132.025 126.635L152.383 103.312L160.231 107.287L146.278 126.861L173.44 130.562C176.718 131.009 179.349 133.368 180.144 136.572C180.835 139.355 180.021 142.213 177.969 144.218C176.439 145.713 174.449 146.511 172.386 146.511C171.681 146.511 170.968 146.418 170.262 146.227H170.261Z" fill="#3F3D56"/>
<path d="M220.38 205.079L171.223 207.329C169.873 205.283 170.238 202.207 172.129 198.355C179.268 183.811 173.846 156.296 170.199 141.969C169.176 137.949 171.923 133.953 176.059 133.54L180.694 133.078L184.978 120.027H199.983L206.208 127.124L216.772 133.528C214.85 153.292 206.656 181.201 218.329 195.197C220.882 198.258 221.605 201.568 220.38 205.079Z" fill="#3F3D56"/>
<path d="M190.572 120.332C198.644 120.332 205.188 113.802 205.188 105.748C205.188 97.6934 198.644 91.1641 190.572 91.1641C182.501 91.1641 175.957 97.6934 175.957 105.748C175.957 113.802 182.501 120.332 190.572 120.332Z" fill="#E8D2A3"/>
<path d="M207.108 96.4116C209.142 89.0139 186.979 82.6703 182.672 88.6276C182.073 87.7806 179.86 87.2662 178.845 87.526C177.829 87.7858 176.975 88.4353 176.142 89.0641C174.996 89.9423 173.809 90.8516 173.106 92.1143C172.398 93.3718 172.289 95.0865 173.241 96.1777C173.997 97.0455 175.323 101.657 176.459 101.885C177.25 102.046 177.917 102.176 178.49 102.27C179 101.527 180.301 100.593 180.208 99.6945C180.978 100.204 180.697 101.1 180.541 102.015C180.024 105.064 168.367 128.667 175.043 121.712C175.705 122.102 176.522 122.465 177.465 122.798C179.063 120.392 180.376 117.555 181.24 114.588L181.246 114.643C181.544 117.221 183.432 119.337 185.931 120.059C195.953 122.956 204.06 118.705 206.849 111.039C205.828 108.971 205.383 109.195 205.474 109.134C206.749 108.277 208.5 108.837 209.048 110.27C209.21 110.692 209.357 111.053 209.484 111.324C210.937 106.139 212.665 106.887 207.108 96.4116H207.108Z" fill="#2F2E41"/>
<path d="M200.194 91.0428L199.17 85.8203C199.084 85.3813 199.003 84.905 199.201 84.5038C199.456 83.9884 200.111 83.7748 200.681 83.8569C201.251 83.9391 201.678 84.4587 202.245 84.5588C204.217 84.9066 206.824 82.963 207.53 87.8801C207.825 89.9302 211.103 90.1468 212.198 91.9063C213.293 93.6658 213.428 96.2054 211.933 97.6429C210.74 98.7909 208.823 98.9234 207.273 98.337C205.723 97.7505 204.479 96.566 203.393 95.3168C202.306 94.0677 201.322 92.7159 200.069 91.6334" fill="#2F2E41"/>
<path d="M207.89 98.987C203.89 98.4295 201.165 96.9782 199.788 94.6736C197.985 91.657 199.193 88.3353 199.245 88.1953L200.09 88.5089C200.079 88.5394 198.984 91.5801 200.567 94.2206C201.799 96.2746 204.304 97.5785 208.014 98.0957L207.89 98.987Z" fill="#FF7E00"/>
<path d="M226.656 42.5547C214.898 42.5547 205.332 33.009 205.332 21.2774C205.332 9.54572 214.898 0 226.656 0C238.413 0 247.979 9.54572 247.979 21.2774C247.979 33.009 238.413 42.5547 226.656 42.5547ZM226.656 8.51095C219.6 8.51095 213.861 14.2375 213.861 21.2774C213.861 28.3172 219.6 34.0438 226.656 34.0438C233.711 34.0438 239.45 28.3172 239.45 21.2774C239.45 14.2375 233.711 8.51095 226.656 8.51095Z" fill="#FF7E00"/>
<path d="M259.466 57.0139C258.421 57.0139 257.373 56.6337 256.551 55.8628L236.537 37.1474C234.817 35.5412 234.73 32.8483 236.341 31.1341C237.949 29.4136 240.648 29.3284 242.368 30.9388L262.381 49.6541C264.102 51.2603 264.189 53.9532 262.577 55.6675C261.738 56.563 260.603 57.0139 259.466 57.0139Z" fill="#FF7E00"/>
<path d="M349.918 348.863C351.368 348.954 352.169 347.156 351.072 346.109L350.963 345.676C350.977 345.641 350.992 345.606 351.006 345.572C352.473 342.083 357.442 342.107 358.896 345.601C360.187 348.702 361.83 351.809 362.234 355.088C362.416 356.535 362.334 358.01 362.012 359.43C365.036 352.84 366.627 345.643 366.627 338.405C366.627 336.587 366.527 334.768 366.323 332.955C366.156 331.471 365.924 329.996 365.625 328.535C364.007 320.637 360.503 313.115 355.448 306.832C353.018 305.506 350.992 303.434 349.768 300.951C349.328 300.055 348.984 299.092 348.82 298.11C349.097 298.147 349.863 293.944 349.654 293.686C350.04 293.103 350.73 292.813 351.15 292.244C353.244 289.412 356.127 289.906 357.633 293.754C360.849 295.374 360.88 298.06 358.907 300.644C357.651 302.287 357.479 304.511 356.377 306.271C356.491 306.415 356.608 306.556 356.722 306.7C358.8 309.36 360.598 312.219 362.113 315.223C361.685 311.885 362.317 307.863 363.395 305.271C364.622 302.317 366.922 299.83 368.947 297.277C371.38 294.21 376.368 295.548 376.797 299.436C376.801 299.474 376.805 299.511 376.809 299.549C376.508 299.718 376.213 299.898 375.925 300.088C374.283 301.172 374.851 303.712 376.796 304.011L376.84 304.018C376.732 305.099 376.546 306.171 376.274 307.225C378.872 317.251 373.263 320.903 365.253 321.067C365.077 321.157 364.904 321.248 364.728 321.334C365.539 323.614 366.187 325.952 366.668 328.322C367.098 330.417 367.398 332.534 367.565 334.66C367.774 337.342 367.756 340.038 367.529 342.716L367.543 342.621C368.118 339.672 369.723 336.917 372.053 335.008C375.525 332.163 380.429 331.115 384.173 328.828C385.976 327.727 388.286 329.15 387.971 331.235L387.956 331.335C387.398 331.561 386.854 331.824 386.329 332.118C386.028 332.287 385.733 332.467 385.445 332.657C383.803 333.741 384.371 336.28 386.316 336.58L386.36 336.587C386.392 336.591 386.419 336.596 386.451 336.6C385.494 338.867 384.162 340.97 382.493 342.784C380.869 351.536 373.891 352.367 366.428 349.818H366.423C365.607 353.364 364.415 356.829 362.882 360.131H350.235C350.189 359.991 350.149 359.846 350.108 359.706C351.277 359.779 352.456 359.711 353.607 359.498C352.669 358.349 351.731 357.191 350.792 356.042C350.77 356.02 350.751 355.997 350.733 355.974C350.257 355.386 349.777 354.803 349.301 354.215L349.301 354.214C349.271 352.409 349.488 350.61 349.917 348.863L349.918 348.863Z" fill="#F2F2F2"/>
<path d="M0 360.169C0 360.632 0.372011 361.003 0.835265 361.003H387.066C387.53 361.003 387.902 360.632 387.902 360.169C387.902 359.707 387.53 359.336 387.066 359.336H0.835265C0.372011 359.336 0 359.707 0 360.169Z" fill="#CCCCCC"/>
</g>
<defs>
<clipPath id="clip0_810_20936">
<rect width="388" height="361" fill="white"/>
</clipPath>
</defs>
</svg>
