<svg width="388" height="361" viewBox="0 0 388 361" fill="none" xmlns="http://www.w3.org/2000/svg">
<g clip-path="url(#clip0_1424_61606)">
<path d="M18.0289 343.994C23.4108 355.119 34.8333 359.894 34.8333 359.894C34.8333 359.894 37.5298 346.634 32.1479 335.509C26.7659 324.385 15.3435 319.609 15.3435 319.609C15.3435 319.609 12.6469 332.87 18.0289 343.994Z" fill="#2F2E41"/>
<path d="M21.7282 340.334C31.4449 346.85 35.187 359.791 35.187 359.791C35.187 359.791 23.1754 362.169 13.4588 355.654C3.74218 349.138 0 336.197 0 336.197C0 336.197 12.0116 333.819 21.7282 340.334Z" fill="#FF7E00"/>
<path d="M239.578 17.3301H178.953V18.2954H239.578V17.3301Z" fill="#F2F2F2"/>
<path d="M223.12 18.0547H222.254V26.9835H223.12V18.0547Z" fill="#F2F2F2"/>
<path d="M196.706 18.0547H195.84V26.9835H196.706V18.0547Z" fill="#F2F2F2"/>
<path d="M270.32 63.6641H209.695V64.6293H270.32V63.6641Z" fill="#F2F2F2"/>
<path d="M227.018 54.9766H226.152V63.9054H227.018V54.9766Z" fill="#F2F2F2"/>
<path d="M253.432 54.9766H252.566V63.9054H253.432V54.9766Z" fill="#F2F2F2"/>
<path d="M350.867 85.3828H290.242V86.3481H350.867V85.3828Z" fill="#F2F2F2"/>
<path d="M307.561 76.6953H306.695V85.6241H307.561V76.6953Z" fill="#F2F2F2"/>
<path d="M333.979 76.6953H333.113V85.6241H333.979V76.6953Z" fill="#F2F2F2"/>
<path d="M344.805 309.326H284.18V310.291H344.805V309.326Z" fill="#F2F2F2"/>
<path d="M301.499 300.639H300.633V309.567H301.499V300.639Z" fill="#F2F2F2"/>
<path d="M327.917 300.639H327.051V309.567H327.917V300.639Z" fill="#F2F2F2"/>
<path d="M241.309 154.4H180.684V155.366H241.309V154.4Z" fill="#F2F2F2"/>
<path d="M198.007 145.713H197.141V154.642H198.007V145.713Z" fill="#F2F2F2"/>
<path d="M224.421 145.713H223.555V154.642H224.421V145.713Z" fill="#F2F2F2"/>
<path d="M260.363 270.715H199.738V271.68H260.363V270.715Z" fill="#F2F2F2"/>
<path d="M217.061 262.029H216.195V270.958H217.061V262.029Z" fill="#F2F2F2"/>
<path d="M243.475 262.029H242.609V270.958H243.475V262.029Z" fill="#F2F2F2"/>
<path d="M357.363 235.482H296.738V236.448H357.363V235.482Z" fill="#F2F2F2"/>
<path d="M314.057 226.795H313.191V235.724H314.057V226.795Z" fill="#F2F2F2"/>
<path d="M340.475 226.795H339.609V235.724H340.475V226.795Z" fill="#F2F2F2"/>
<path d="M156.787 338.902H54.25V338.08H156.049V298.204H62.87L58.3435 287.694L59.0086 287.338L63.3342 297.382H156.787V338.902Z" fill="#2F2E41"/>
<path d="M67.894 359.045C72.1718 359.045 75.6396 355.18 75.6396 350.412C75.6396 345.644 72.1718 341.779 67.894 341.779C63.6163 341.779 60.1484 345.644 60.1484 350.412C60.1484 355.18 63.6163 359.045 67.894 359.045Z" fill="#3F3D56"/>
<path d="M144.246 359.045C148.523 359.045 151.991 355.18 151.991 350.412C151.991 345.644 148.523 341.779 144.246 341.779C139.968 341.779 136.5 345.644 136.5 350.412C136.5 355.18 139.968 359.045 144.246 359.045Z" fill="#3F3D56"/>
<path d="M234.24 172.411C236.888 172.411 239.035 170.018 239.035 167.067C239.035 164.115 236.888 161.723 234.24 161.723C231.592 161.723 229.445 164.115 229.445 167.067C229.445 170.018 231.592 172.411 234.24 172.411Z" fill="#3F3D56"/>
<path d="M167.752 284.637H52.5003L27.5625 193.787H193.434L193.283 194.322L167.752 284.637ZM53.046 283.815H167.211L192.429 194.609H28.5595L53.046 283.815Z" fill="#2F2E41"/>
<path d="M158.755 279.911H57.5249L35.6211 199.338H181.312L181.18 199.812L158.755 279.911Z" fill="#F2F2F2"/>
<path d="M195.498 185.672L194.785 185.461L199.653 165.012H227.969V165.834H200.221L195.498 185.672Z" fill="#2F2E41"/>
<path d="M185.145 221.33H35.6211V222.152H185.145V221.33Z" fill="#2F2E41"/>
<path d="M176.58 251.621H43.9336V252.443H176.58V251.621Z" fill="#2F2E41"/>
<path d="M110.867 194.199H110.129V284.227H110.867V194.199Z" fill="#2F2E41"/>
<path d="M143.893 194.173L138.598 284.199L139.334 284.253L144.629 194.227L143.893 194.173Z" fill="#2F2E41"/>
<path d="M77.1151 194.171L76.3789 194.225L81.6435 284.253L82.3797 284.199L77.1151 194.171Z" fill="#2F2E41"/>
<path d="M388 359.566H0V360.532H388V359.566Z" fill="#2F2E41"/>
<path d="M257.832 29.8633C257.832 29.8633 264.162 49.9441 260.267 53.0334C256.371 56.1228 273.414 81.3525 273.414 81.3525L293.866 75.1738L282.666 54.0632C282.666 54.0632 281.205 32.9526 281.205 29.8633C281.205 26.7739 257.832 29.8633 257.832 29.8633Z" fill="#EDDEB8"/>
<path opacity="0.1" d="M257.832 29.8633C257.832 29.8633 264.162 49.9441 260.267 53.0334C256.371 56.1228 273.414 81.3525 273.414 81.3525L293.866 75.1738L282.666 54.0632C282.666 54.0632 281.205 32.9526 281.205 29.8633C281.205 26.7739 257.832 29.8633 257.832 29.8633Z" fill="#EDDEB8"/>
<path d="M247.208 173.004C247.208 173.004 245.36 198.749 247.208 212.136C249.056 225.523 251.828 262.596 251.828 262.596C251.828 262.596 251.828 332.621 261.991 333.651C272.155 334.68 279.546 335.71 280.47 331.591C281.394 327.472 275.85 325.412 278.622 323.353C281.394 321.293 282.318 314.085 278.622 305.847C274.926 297.608 278.622 214.196 278.622 214.196L296.177 266.715C296.177 266.715 298.025 309.966 299.873 316.144C301.721 322.323 298.025 333.651 304.493 334.68C310.96 335.71 318.352 329.532 322.048 327.472C325.744 325.412 316.504 325.412 318.352 324.383C320.2 323.353 325.744 320.263 323.896 319.234C322.048 318.204 320.2 268.774 320.2 268.774C320.2 268.774 315.118 163.221 308.651 159.102C302.183 154.983 298.025 162.078 298.025 162.078L247.208 173.004Z" fill="#2F2E41"/>
<path d="M263.84 329.531V337.77C263.84 337.77 255.525 360.164 263.84 360.164C272.156 360.164 278.624 362.484 278.624 359.395V331.591L263.84 329.531Z" fill="#2F2E41"/>
<path d="M318.353 329.516V337.754C318.353 337.754 326.669 360.148 318.353 360.148C310.038 360.148 303.57 362.469 303.57 359.379V331.575L318.353 329.516Z" fill="#2F2E41"/>
<path d="M270.768 44.7949C279.953 44.7949 287.399 36.496 287.399 26.2588C287.399 16.0216 279.953 7.72266 270.768 7.72266C261.583 7.72266 254.137 16.0216 254.137 26.2588C254.137 36.496 261.583 44.7949 270.768 44.7949Z" fill="#EDDEB8"/>
<path d="M265.688 60.7578C265.688 60.7578 270.307 76.2046 277.699 73.1152L285.091 70.0259L298.026 168.885C298.026 168.885 287.862 185.362 273.079 175.064C258.296 164.766 265.688 60.7578 265.688 60.7578Z" fill="#FF7E00"/>
<path d="M278.625 57.6677L282.783 47.8848C282.783 47.8848 307.267 60.7571 310.963 64.8762C314.659 68.9953 314.659 75.1741 314.659 75.1741L308.191 100.919C308.191 100.919 310.039 157.557 310.039 159.616C310.039 161.676 316.507 173.004 311.887 168.884C307.267 164.765 306.343 160.646 302.648 166.825C298.952 173.004 290.636 180.212 290.636 180.212L278.625 57.6677Z" fill="#3F3D56"/>
<path d="M310.962 131.812L308.19 160.646C308.19 160.646 291.559 177.123 295.255 178.153C298.95 179.183 300.798 175.063 300.798 175.063C300.798 175.063 307.266 182.272 310.962 178.153C314.658 174.034 323.897 134.902 323.897 134.902L310.962 131.812Z" fill="#EDDEB8"/>
<path d="M271.123 0.0626808C267.436 -0.08422 263.49 -0.156887 260.382 2.05753C258.952 3.16885 257.697 4.53755 256.67 6.10761C253.642 10.3734 251.026 15.7407 252.151 21.0334L253.457 20.4656C253.457 21.8784 253.175 23.2735 252.632 24.55C252.816 23.9539 253.432 24.9175 253.267 25.5205L251.828 30.7816C254.193 29.8152 257.136 31.7719 257.496 34.5509C257.66 28.4401 258.229 21.4329 262.677 17.8548C264.92 16.0504 267.758 15.4995 270.489 15.0104C273.009 14.5591 275.65 14.1288 278.063 15.0532C280.477 15.9777 282.532 18.7285 281.985 21.5066C283.097 21.0793 284.342 21.9437 284.892 23.1034C285.442 24.2631 285.471 25.6312 285.487 26.9428C286.673 27.8771 288.023 26.0219 288.507 24.4953C289.641 20.912 290.65 17.0977 290.039 13.3594C289.427 9.62105 286.694 6.0485 283.285 6.03583C283.699 5.52922 283.919 4.86307 283.9 4.17827L281.09 3.91364C281.804 3.80106 282.46 3.41553 282.946 2.8231C281.818 4.20679 272.947 0.135371 271.123 0.0626808Z" fill="#2F2E41"/>
<path d="M270.308 54.5777C270.308 54.5777 262.787 46.3627 260.08 46.866C257.373 47.3692 253.677 54.5777 253.677 54.5777C253.677 54.5777 231.503 62.8159 232.427 71.0542C233.35 79.2925 243.514 119.454 243.514 119.454C243.514 119.454 251.829 167.854 244.438 173.003C237.046 178.152 279.548 191.539 280.472 185.36C281.396 179.182 283.244 117.395 280.472 108.126C277.7 98.8584 270.308 54.5777 270.308 54.5777Z" fill="#3F3D56"/>
<path d="M302.648 71.0547H314.073C314.073 71.0547 322.051 110.187 322.975 114.306C323.899 118.425 325.747 137.991 324.823 137.991C323.899 137.991 305.42 133.872 305.42 136.961L302.648 71.0547Z" fill="#3F3D56"/>
<path d="M302.26 167.958H258.524C254.256 146.075 253.899 124.933 258.524 104.732H302.26C295.202 124.569 294.761 145.567 302.26 167.958Z" fill="#F2F2F2"/>
<path d="M240.742 141.08L253.677 147.258C253.677 147.258 278.624 151.378 278.624 140.05C278.624 128.722 253.677 134.901 253.677 134.901L245.361 131.938L240.742 141.08Z" fill="#EDDEB8"/>
<path d="M243.513 64.877L232.425 67.9663L224.11 122.545C224.11 122.545 221.338 136.962 225.958 137.992C230.577 139.021 243.513 147.26 243.513 147.26C243.513 147.26 245.361 131.813 249.056 131.813L239.817 123.575L245.361 87.5322L243.513 64.877Z" fill="#3F3D56"/>
<path d="M86.7148 170.326H26.0898V171.291H86.7148V170.326Z" fill="#F2F2F2"/>
<path d="M43.4129 161.639H42.5469V170.567H43.4129V161.639Z" fill="#F2F2F2"/>
<path d="M69.827 161.639H68.9609V170.567H69.827V161.639Z" fill="#F2F2F2"/>
<path d="M107.934 27.4668H47.3086V28.4321H107.934V27.4668Z" fill="#F2F2F2"/>
<path d="M91.4794 28.1895H90.6133V37.1183H91.4794V28.1895Z" fill="#F2F2F2"/>
<path d="M65.0614 28.1895H64.1953V37.1183H65.0614V28.1895Z" fill="#F2F2F2"/>
<path d="M168.992 122.545H108.367V123.51H168.992V122.545Z" fill="#F2F2F2"/>
<path d="M152.538 123.27H151.672V132.198H152.538V123.27Z" fill="#F2F2F2"/>
<path d="M126.124 123.27H125.258V132.198H126.124V123.27Z" fill="#F2F2F2"/>
<path d="M65.9297 122.062H5.30469V123.028H65.9297V122.062Z" fill="#F2F2F2"/>
<path d="M49.4754 122.787H48.6094V131.716H49.4754V122.787Z" fill="#F2F2F2"/>
<path d="M23.0614 122.787H22.1953V131.716H23.0614V122.787Z" fill="#F2F2F2"/>
<path d="M138.68 73.7988H78.0547V74.7641H138.68V73.7988Z" fill="#F2F2F2"/>
<path d="M95.3739 65.1113H94.5078V74.0401H95.3739V65.1113Z" fill="#F2F2F2"/>
<path d="M121.792 65.1113H120.926V74.0401H121.792V65.1113Z" fill="#F2F2F2"/>
</g>
<defs>
<clipPath id="clip0_1424_61606">
<rect width="388" height="361" fill="white"/>
</clipPath>
</defs>
</svg>
