<svg width="32" height="32" viewBox="0 0 32 32" fill="none" xmlns="http://www.w3.org/2000/svg">
<mask id="mask0_8465_45612" style="mask-type:alpha" maskUnits="userSpaceOnUse" x="0" y="0" width="32" height="32">
<path fill-rule="evenodd" clip-rule="evenodd" d="M15.681 27.805C12.7869 26.0239 10.0945 23.9275 7.65206 21.5536C5.93492 19.8439 4.62768 17.7597 3.83047 15.4605C2.39587 11.0004 4.07158 5.89444 8.76117 4.38336C11.2258 3.58991 13.9176 4.0434 15.9945 5.60197C18.0721 4.0453 20.763 3.59197 23.2278 4.38336C27.9173 5.89444 29.6051 11.0004 28.1705 15.4605C27.3733 17.7597 26.0661 19.8439 24.3489 21.5536C21.9065 23.9275 19.2141 26.0239 16.32 27.805L16.0065 28L15.681 27.805Z" stroke="#200E32" stroke-width="1.5" stroke-linecap="round" stroke-linejoin="round"/>
<path d="M20.9854 9.4043C22.4058 9.85803 23.415 11.1332 23.5411 12.6336" stroke="#200E32" stroke-width="1.5" stroke-linecap="round" stroke-linejoin="round"/>
</mask>
<g mask="url(#mask0_8465_45612)">
<rect width="32" height="32" fill="#FF6418"/>
</g>
</svg>
