<svg width="32" height="33" viewBox="0 0 32 33" fill="none" xmlns="http://www.w3.org/2000/svg">
<path fill-rule="evenodd" clip-rule="evenodd" d="M15.6813 28.0094C12.7871 26.2151 10.0947 24.1034 7.65231 21.7119C5.93517 19.9897 4.62793 17.8902 3.83071 15.5741C2.39611 11.0812 4.07182 5.93766 8.76141 4.41548C11.2261 3.61619 13.9179 4.07302 15.9947 5.64305C18.0724 4.07493 20.7632 3.61827 23.228 4.41548C27.9176 5.93766 29.6054 11.0812 28.1708 15.5741C27.3735 17.8902 26.0663 19.9897 24.3492 21.7119C21.9067 24.1034 19.2144 26.2151 16.3202 28.0094L16.0068 28.2058L15.6813 28.0094Z" stroke="#200E32" stroke-width="1.5" stroke-linecap="round" stroke-linejoin="round"/>
<path d="M20.9856 9.47314C22.406 9.93021 23.4152 11.2148 23.5414 12.7262" stroke="#200E32" stroke-width="1.5" stroke-linecap="round" stroke-linejoin="round"/>
</svg>
