<svg width="14" height="12" viewBox="0 0 14 12" fill="none" xmlns="http://www.w3.org/2000/svg">
<path fill-rule="evenodd" clip-rule="evenodd" d="M7.47543 0.293887L9.01943 3.39989C9.09677 3.55655 9.2461 3.66589 9.41943 3.69122L12.8761 4.19055C13.0161 4.20922 13.1421 4.28255 13.2281 4.39455C13.3894 4.60455 13.3648 4.90189 13.1714 5.08255L10.6661 7.50522C10.5388 7.62522 10.4821 7.80122 10.5154 7.97255L11.1154 11.3912C11.1574 11.6746 10.9641 11.9399 10.6808 11.9859C10.5634 12.0039 10.4434 11.9852 10.3368 11.9326L7.2581 10.3186C7.10343 10.2346 6.9181 10.2346 6.76343 10.3186L3.6621 11.9412C3.40277 12.0732 3.08543 11.9752 2.9441 11.7212C2.8901 11.6186 2.87143 11.5019 2.8901 11.3879L3.4901 7.96922C3.5201 7.79855 3.46343 7.62322 3.33943 7.50255L0.820768 5.08055C0.615435 4.87655 0.614101 4.54455 0.818768 4.33922C0.819435 4.33855 0.820101 4.33722 0.820768 4.33655C0.905435 4.25989 1.00943 4.20855 1.1221 4.18855L4.57943 3.68922C4.7521 3.66189 4.90077 3.55389 4.97943 3.39722L6.5221 0.293887C6.5841 0.167887 6.6941 0.0712201 6.82743 0.0272201C6.96143 -0.0174466 7.1081 -0.00677988 7.2341 0.0565534C7.33743 0.107887 7.4221 0.19122 7.47543 0.293887Z" fill="#F6C65C"/>
</svg>
