<svg width="226" height="27" viewBox="0 0 226 27" fill="none" xmlns="http://www.w3.org/2000/svg">
<path d="M221.75 12.7256L206.75 12.7256" stroke="black" stroke-width="1.5" stroke-linecap="round" stroke-linejoin="round"/>
<path d="M215.699 6.70124L221.749 12.7252L215.699 18.7502" stroke="black" stroke-width="1.5" stroke-linecap="round" stroke-linejoin="round"/>
<path d="M2.664 17.488C1.428 16.228 0.81 14.632 0.81 12.7C0.81 10.768 1.428 9.178 2.664 7.93C3.912 6.67 5.484 6.04 7.38 6.04C9.504 6.04 11.178 6.808 12.402 8.344C12.942 9.004 13.338 9.766 13.59 10.63H11.97C11.718 10.03 11.4 9.52 11.016 9.1C10.068 8.08 8.856 7.57 7.38 7.57C5.928 7.57 4.74 8.044 3.816 8.992C2.892 9.94 2.43 11.176 2.43 12.7C2.43 14.224 2.892 15.46 3.816 16.408C4.74 17.356 5.928 17.83 7.38 17.83C8.88 17.83 10.122 17.278 11.106 16.174C11.502 15.718 11.82 15.16 12.06 14.5H13.68C13.392 15.436 12.972 16.246 12.42 16.93C11.16 18.55 9.48 19.36 7.38 19.36C5.484 19.36 3.912 18.736 2.664 17.488ZM14.3128 19L16.8328 10H20.6128L23.1328 19H21.6028L19.5328 11.35H17.9128L15.8428 19H14.3128ZM25.3426 17.848C24.4666 16.96 24.0286 15.844 24.0286 14.5C24.0286 13.156 24.4666 12.04 25.3426 11.152C26.2186 10.264 27.3106 9.82 28.6186 9.82C29.9266 9.82 31.0186 10.258 31.8946 11.134C32.7706 12.01 33.2086 13.102 33.2086 14.41V14.95H25.4686C25.5646 15.79 25.9066 16.48 26.4946 17.02C27.0826 17.56 27.7906 17.83 28.6186 17.83C29.5066 17.83 30.2686 17.56 30.9046 17.02C31.1926 16.78 31.4206 16.51 31.5886 16.21H33.0286C32.8126 16.774 32.5066 17.272 32.1106 17.704C31.1746 18.688 30.0106 19.18 28.6186 19.18C27.3106 19.18 26.2186 18.736 25.3426 17.848ZM25.5046 13.69H31.6786C31.5706 12.982 31.2406 12.388 30.6886 11.908C30.1366 11.416 29.4466 11.17 28.6186 11.17C27.7906 11.17 27.0946 11.416 26.5306 11.908C25.9666 12.388 25.6246 12.982 25.5046 13.69ZM34.0158 21.07V17.65H35.0058L37.0758 10H40.8558L42.9258 17.65H43.9158V21.07H42.4758V19H35.4558V21.07H34.0158ZM36.4458 17.65H41.4858L39.7758 11.35H38.1558L36.4458 17.65ZM44.0944 10H45.6244L47.6044 17.65H48.9544L51.2944 10H52.8244L49.0444 22.42H47.5144L48.5944 19H46.5244L44.0944 10ZM54.0823 19V10H55.5223V13.78H56.9623C57.1783 12.592 57.6883 11.638 58.4923 10.918C59.3083 10.186 60.2983 9.82 61.4623 9.82C62.7343 9.82 63.8023 10.264 64.6663 11.152C65.5303 12.04 65.9623 13.156 65.9623 14.5C65.9623 15.844 65.5303 16.96 64.6663 17.848C63.8023 18.736 62.7343 19.18 61.4623 19.18C60.3103 19.18 59.3143 18.802 58.4743 18.046C57.6343 17.278 57.1303 16.306 56.9623 15.13H55.5223V19H54.0823ZM59.2663 12.106C58.6903 12.73 58.4023 13.528 58.4023 14.5C58.4023 15.472 58.6903 16.27 59.2663 16.894C59.8543 17.518 60.5863 17.83 61.4623 17.83C62.3383 17.83 63.0643 17.518 63.6403 16.894C64.2283 16.27 64.5223 15.472 64.5223 14.5C64.5223 13.528 64.2283 12.73 63.6403 12.106C63.0643 11.482 62.3383 11.17 61.4623 11.17C60.5863 11.17 59.8543 11.482 59.2663 12.106ZM67.9338 19V10H69.3738V17.65H72.9738V10H74.4138V17.65H78.0138V10H79.4538V17.65H80.7138V21.07H79.2738V19H67.9338ZM82.9624 17.848C82.1224 16.948 81.7024 15.832 81.7024 14.5C81.7024 13.168 82.1224 12.058 82.9624 11.17C83.8024 10.27 84.8224 9.82 86.0224 9.82C86.7784 9.82 87.4144 9.964 87.9304 10.252C88.4584 10.54 88.8424 10.852 89.0824 11.188L89.2444 11.458H89.2624V10H90.7024V19H89.2624V17.56H89.2444L89.0824 17.812C88.8664 18.136 88.4944 18.448 87.9664 18.748C87.4384 19.036 86.7904 19.18 86.0224 19.18C84.8224 19.18 83.8024 18.736 82.9624 17.848ZM84.0064 12.106C83.4304 12.73 83.1424 13.528 83.1424 14.5C83.1424 15.472 83.4304 16.27 84.0064 16.894C84.5944 17.518 85.3264 17.83 86.2024 17.83C87.0784 17.83 87.8044 17.518 88.3804 16.894C88.9684 16.27 89.2624 15.472 89.2624 14.5C89.2624 13.528 88.9684 12.73 88.3804 12.106C87.8044 11.482 87.0784 11.17 86.2024 11.17C85.3264 11.17 84.5944 11.482 84.0064 12.106ZM92.8688 19L94.6688 15.76C94.3688 15.628 94.0688 15.436 93.7688 15.184C93.1688 14.632 92.8688 13.924 92.8688 13.06C92.8688 12.184 93.1868 11.458 93.8228 10.882C94.4588 10.294 95.3048 10 96.3608 10H100.429V19H98.9888V16.12H96.1088L94.5248 19H92.8688ZM94.8308 11.818C94.4828 12.13 94.3088 12.544 94.3088 13.06C94.3088 13.576 94.4828 13.99 94.8308 14.302C95.1908 14.614 95.7068 14.77 96.3788 14.77H98.9888V11.35H96.3788C95.7068 11.35 95.1908 11.506 94.8308 11.818ZM108.75 17.848C107.886 16.96 107.454 15.844 107.454 14.5C107.454 13.156 107.886 12.04 108.75 11.152C109.614 10.264 110.682 9.82 111.954 9.82C113.43 9.82 114.6 10.348 115.464 11.404C115.836 11.872 116.106 12.394 116.274 12.97H114.834C114.702 12.646 114.504 12.346 114.24 12.07C113.664 11.47 112.902 11.17 111.954 11.17C111.078 11.17 110.346 11.482 109.758 12.106C109.182 12.73 108.894 13.528 108.894 14.5C108.894 15.472 109.194 16.27 109.794 16.894C110.394 17.518 111.114 17.83 111.954 17.83C112.938 17.83 113.724 17.5 114.312 16.84C114.576 16.564 114.78 16.234 114.924 15.85H116.364C116.208 16.462 115.932 17.02 115.536 17.524C114.624 18.628 113.43 19.18 111.954 19.18C110.682 19.18 109.614 18.736 108.75 17.848ZM117.002 11.35V10H124.742V11.35H121.592V19H120.152V11.35H117.002ZM126.1 22.42V10H127.54V11.44H127.558L127.738 11.17C127.942 10.858 128.308 10.558 128.836 10.27C129.364 9.97 130.012 9.82 130.78 9.82C131.98 9.82 133 10.27 133.84 11.17C134.68 12.058 135.1 13.168 135.1 14.5C135.1 15.832 134.68 16.948 133.84 17.848C133 18.736 131.98 19.18 130.78 19.18C130.012 19.18 129.358 19.036 128.818 18.748C128.29 18.448 127.93 18.136 127.738 17.812L127.558 17.56H127.54V22.42H126.1ZM128.404 12.106C127.828 12.73 127.54 13.528 127.54 14.5C127.54 15.472 127.828 16.27 128.404 16.894C128.992 17.518 129.724 17.83 130.6 17.83C131.476 17.83 132.202 17.518 132.778 16.894C133.366 16.27 133.66 15.472 133.66 14.5C133.66 13.528 133.366 12.73 132.778 12.106C132.202 11.482 131.476 11.17 130.6 11.17C129.724 11.17 128.992 11.482 128.404 12.106ZM137.806 17.848C136.966 16.948 136.546 15.832 136.546 14.5C136.546 13.168 136.966 12.058 137.806 11.17C138.646 10.27 139.666 9.82 140.866 9.82C141.622 9.82 142.258 9.964 142.774 10.252C143.302 10.54 143.686 10.852 143.926 11.188L144.088 11.458H144.106V10H145.546V19H144.106V17.56H144.088L143.926 17.812C143.71 18.136 143.338 18.448 142.81 18.748C142.282 19.036 141.634 19.18 140.866 19.18C139.666 19.18 138.646 18.736 137.806 17.848ZM138.85 12.106C138.274 12.73 137.986 13.528 137.986 14.5C137.986 15.472 138.274 16.27 138.85 16.894C139.438 17.518 140.17 17.83 141.046 17.83C141.922 17.83 142.648 17.518 143.224 16.894C143.812 16.27 144.106 15.472 144.106 14.5C144.106 13.528 143.812 12.73 143.224 12.106C142.648 11.482 141.922 11.17 141.046 11.17C140.17 11.17 139.438 11.482 138.85 12.106ZM148.073 19V10H149.513V13.69H154.553V10H155.993V19H154.553V15.04H149.513V19H148.073ZM158.514 19V10H159.954V16.75L159.936 16.93H159.972L164.814 10H166.434V19H164.994V12.25L165.012 12.07H164.976L160.134 19H158.514ZM168.955 19V10H170.395V17.65H175.075V10H176.515V17.65H177.775V21.07H176.335V19H168.955ZM180.029 17.848C179.189 16.948 178.769 15.832 178.769 14.5C178.769 13.168 179.189 12.058 180.029 11.17C180.869 10.27 181.889 9.82 183.089 9.82C183.845 9.82 184.481 9.964 184.997 10.252C185.525 10.54 185.909 10.852 186.149 11.188L186.311 11.458H186.329V10H187.769V19H186.329V17.56H186.311L186.149 17.812C185.933 18.136 185.561 18.448 185.033 18.748C184.505 19.036 183.857 19.18 183.089 19.18C181.889 19.18 180.869 18.736 180.029 17.848ZM181.073 12.106C180.497 12.73 180.209 13.528 180.209 14.5C180.209 15.472 180.497 16.27 181.073 16.894C181.661 17.518 182.393 17.83 183.269 17.83C184.145 17.83 184.871 17.518 185.447 16.894C186.035 16.27 186.329 15.472 186.329 14.5C186.329 13.528 186.035 12.73 185.447 12.106C184.871 11.482 184.145 11.17 183.269 11.17C182.393 11.17 181.661 11.482 181.073 12.106Z" fill="#020105"/>
</svg>
