<svg width="48" height="48" viewBox="0 0 48 48" fill="none" xmlns="http://www.w3.org/2000/svg">
<circle cx="24" cy="24" r="24" fill="#F2F2FA"/>
<path fill-rule="evenodd" clip-rule="evenodd" d="M20.3383 30.2559C20.6759 30.2559 20.9503 30.5303 20.9503 30.8679C20.9503 31.2055 20.6759 31.4791 20.3383 31.4791C20.0007 31.4791 19.7271 31.2055 19.7271 30.8679C19.7271 30.5303 20.0007 30.2559 20.3383 30.2559Z" stroke="#200E32" stroke-width="1.5" stroke-linecap="round" stroke-linejoin="round"/>
<path fill-rule="evenodd" clip-rule="evenodd" d="M29.34 30.2559C29.6776 30.2559 29.952 30.5303 29.952 30.8679C29.952 31.2055 29.6776 31.4791 29.34 31.4791C29.0024 31.4791 28.728 31.2055 28.728 30.8679C28.728 30.5303 29.0024 30.2559 29.34 30.2559Z" stroke="#200E32" stroke-width="1.5" stroke-linecap="round" stroke-linejoin="round"/>
<path d="M16.6001 17L18.2641 17.288L19.0345 26.4664C19.0969 27.2144 19.7217 27.7888 20.4721 27.7888H29.2017C29.9185 27.7888 30.5265 27.2624 30.6297 26.552L31.3889 21.3056C31.4825 20.6584 30.9809 20.0792 30.3273 20.0792H18.5313" stroke="#200E32" stroke-width="1.5" stroke-linecap="round" stroke-linejoin="round"/>
<path d="M25.7007 23.0367H27.9191" stroke="#200E32" stroke-width="1.5" stroke-linecap="round" stroke-linejoin="round"/>
</svg>
