<svg width="48" height="48" viewBox="0 0 48 48" fill="none" xmlns="http://www.w3.org/2000/svg">
<circle cx="24" cy="24" r="24" fill="#FF7E00"/>
<path fill-rule="evenodd" clip-rule="evenodd" d="M20.3382 30.2559C20.6758 30.2559 20.9502 30.5303 20.9502 30.8679C20.9502 31.2055 20.6758 31.4791 20.3382 31.4791C20.0006 31.4791 19.727 31.2055 19.727 30.8679C19.727 30.5303 20.0006 30.2559 20.3382 30.2559Z" stroke="white" stroke-width="1.5" stroke-linecap="round" stroke-linejoin="round"/>
<path fill-rule="evenodd" clip-rule="evenodd" d="M29.3401 30.2559C29.6777 30.2559 29.9521 30.5303 29.9521 30.8679C29.9521 31.2055 29.6777 31.4791 29.3401 31.4791C29.0025 31.4791 28.7281 31.2055 28.7281 30.8679C28.7281 30.5303 29.0025 30.2559 29.3401 30.2559Z" stroke="white" stroke-width="1.5" stroke-linecap="round" stroke-linejoin="round"/>
<path d="M16.6003 17L18.2643 17.288L19.0347 26.4664C19.0971 27.2144 19.7219 27.7888 20.4723 27.7888H29.2019C29.9187 27.7888 30.5267 27.2624 30.6299 26.552L31.3891 21.3056C31.4827 20.6584 30.9811 20.0792 30.3275 20.0792H18.5315" stroke="white" stroke-width="1.5" stroke-linecap="round" stroke-linejoin="round"/>
<path d="M25.7007 23.0367H27.9191" stroke="white" stroke-width="1.5" stroke-linecap="round" stroke-linejoin="round"/>
</svg>
