<svg width="48" height="48" viewBox="0 0 48 48" fill="none" xmlns="http://www.w3.org/2000/svg">
<circle cx="24" cy="24" r="24" fill="#F2F2FA"/>
<circle cx="23.6636" cy="20.2228" r="3.82243" stroke="#020105" stroke-width="1.5" stroke-linecap="round" stroke-linejoin="round"/>
<path fill-rule="evenodd" clip-rule="evenodd" d="M17.6004 29.362C17.5994 29.0933 17.6595 28.8279 17.7762 28.5858C18.1423 27.8536 19.1748 27.4655 20.0315 27.2897C20.6494 27.1579 21.2758 27.0698 21.9061 27.0261C23.0731 26.9236 24.2468 26.9236 25.4137 27.0261C26.0439 27.0703 26.6703 27.1584 27.2883 27.2897C28.145 27.4655 29.1775 27.8169 29.5437 28.5858C29.7783 29.0793 29.7783 29.6521 29.5437 30.1455C29.1775 30.9144 28.145 31.2659 27.2883 31.4343C26.6711 31.5717 26.0445 31.6622 25.4137 31.7053C24.4639 31.7858 23.5097 31.8005 22.5579 31.7492C22.3382 31.7492 22.1258 31.7492 21.9061 31.7053C21.2777 31.6628 20.6535 31.5722 20.0389 31.4343C19.1748 31.2659 18.1496 30.9144 17.7762 30.1455C17.6601 29.9007 17.6 29.633 17.6004 29.362Z" stroke="#020105" stroke-width="1.5" stroke-linecap="round" stroke-linejoin="round"/>
</svg>
