<svg width="28" height="26" viewBox="0 0 28 26" fill="none" xmlns="http://www.w3.org/2000/svg">
<path fill-rule="evenodd" clip-rule="evenodd" d="M13.681 24.805C10.7869 23.0239 8.09449 20.9275 5.65206 18.5536C3.93492 16.8439 2.62768 14.7597 1.83047 12.4605C0.395866 8.00041 2.07158 2.89444 6.76117 1.38336C9.22582 0.589913 11.9176 1.0434 13.9945 2.60197C16.0721 1.0453 18.763 0.59197 21.2278 1.38336C25.9173 2.89444 27.6051 8.00041 26.1705 12.4605C25.3733 14.7597 24.0661 16.8439 22.3489 18.5536C19.9065 20.9275 17.2141 23.0239 14.32 24.805L14.0065 25L13.681 24.805Z" stroke="#200E32" stroke-width="1.5" stroke-linecap="round" stroke-linejoin="round"/>
<path d="M18.9854 6.4043C20.4058 6.85803 21.415 8.13323 21.5411 9.63361" stroke="#200E32" stroke-width="1.5" stroke-linecap="round" stroke-linejoin="round"/>
</svg>
