<svg width="24" height="24" viewBox="0 0 24 24" fill="none" xmlns="http://www.w3.org/2000/svg">
<path d="M16.2856 2.6H19.5522C20.5673 2.6 21.4001 3.4322 21.4001 4.47018V7.7641C21.4001 8.80121 20.5671 9.63429 19.5522 9.63429H16.2856C15.2695 9.63429 14.4367 8.80105 14.4367 7.7641V4.47018C14.4367 3.43237 15.2693 2.6 16.2856 2.6Z" stroke="#020105" stroke-width="1.2" stroke-linecap="round" stroke-linejoin="round"/>
<path d="M4.44892 2.6H7.71449C8.73078 2.6 9.56341 3.43237 9.56341 4.47018V7.7641C9.56341 8.80105 8.73062 9.63429 7.71449 9.63429H4.44892C3.43279 9.63429 2.6 8.80105 2.6 7.7641V4.47018C2.6 3.43237 3.43263 2.6 4.44892 2.6Z" stroke="#020105" stroke-width="1.2" stroke-linecap="round" stroke-linejoin="round"/>
<path d="M4.44892 14.3656H7.71449C8.73062 14.3656 9.56341 15.1978 9.56341 16.2368V19.5297C9.56341 20.5675 8.73078 21.3999 7.71449 21.3999H4.44892C3.43263 21.3999 2.6 20.5675 2.6 19.5297V16.2368C2.6 15.1978 3.43279 14.3656 4.44892 14.3656Z" stroke="#020105" stroke-width="1.2" stroke-linecap="round" stroke-linejoin="round"/>
<path d="M16.2856 14.3656H19.5522C20.5671 14.3656 21.4001 15.1977 21.4001 16.2368V19.5297C21.4001 20.5677 20.5673 21.3999 19.5522 21.3999H16.2856C15.2693 21.3999 14.4367 20.5675 14.4367 19.5297V16.2368C14.4367 15.1978 15.2695 14.3656 16.2856 14.3656Z" stroke="#020105" stroke-width="1.2" stroke-linecap="round" stroke-linejoin="round"/>
</svg>
