<svg width="14" height="13" viewBox="0 0 14 13" fill="none" xmlns="http://www.w3.org/2000/svg">
<path fill-rule="evenodd" clip-rule="evenodd" d="M7.47609 0.793887L9.02009 3.89989C9.09742 4.05655 9.24676 4.16589 9.42009 4.19122L12.8768 4.69055C13.0168 4.70922 13.1428 4.78255 13.2288 4.89455C13.3901 5.10455 13.3654 5.40189 13.1721 5.58255L10.6668 8.00522C10.5394 8.12522 10.4828 8.30122 10.5161 8.47255L11.1161 11.8912C11.1581 12.1746 10.9648 12.4399 10.6814 12.4859C10.5641 12.5039 10.4441 12.4852 10.3374 12.4326L7.25876 10.8186C7.10409 10.7346 6.91876 10.7346 6.76409 10.8186L3.66276 12.4412C3.40342 12.5732 3.08609 12.4752 2.94476 12.2212C2.89076 12.1186 2.87209 12.0019 2.89076 11.8879L3.49076 8.46922C3.52076 8.29855 3.46409 8.12322 3.34009 8.00255L0.821424 5.58055C0.616091 5.37655 0.614758 5.04455 0.819424 4.83922C0.820091 4.83855 0.820758 4.83722 0.821424 4.83655C0.906091 4.75989 1.01009 4.70855 1.12276 4.68855L4.58009 4.18922C4.75276 4.16189 4.90142 4.05389 4.98009 3.89722L6.52276 0.793887C6.58476 0.667887 6.69476 0.57122 6.82809 0.52722C6.96209 0.482553 7.10876 0.49322 7.23476 0.556553C7.33809 0.607887 7.42276 0.69122 7.47609 0.793887Z" fill="#F6C65C"/>
</svg>
