<svg width="25" height="25" viewBox="0 0 25 25" fill="none" xmlns="http://www.w3.org/2000/svg">
<g clip-path="url(#clip0_8136_39484)">
<mask id="path-1-inside-1_8136_39484" fill="white">
<path d="M19.586 9.61812H19.5522C19.0919 9.61556 18.6472 9.78469 18.3048 10.0924C18.0276 9.32538 17.3233 8.774 16.4983 8.774C15.9926 8.77755 15.5097 8.98513 15.1594 9.35002C14.8372 8.69791 14.191 8.25554 13.4481 8.25554H13.4122C13.014 8.24943 12.6254 8.37895 12.3104 8.6226V3.97364C12.3104 2.85018 11.4357 1.93628 10.3718 1.93628C9.30907 1.93628 8.43893 2.84959 8.43834 3.97226L8.42947 13.1961L7.90746 12.5621C7.44972 11.9922 6.77592 11.6383 6.04693 11.5849C5.33292 11.536 4.63054 11.7844 4.10617 12.2717L3.65197 12.648C3.50551 12.7695 3.46371 12.9765 3.55144 13.1452L7.96739 21.6335C8.77484 23.1847 10.3111 24.1525 11.9767 24.1525H16.9533V24.1481C19.4765 24.1481 21.5224 21.9586 21.5249 19.2701C21.5259 18.0672 21.5214 17.1706 21.5222 16.444C21.5247 14.4999 21.5228 13.7825 21.5178 11.6407C21.5153 10.5198 20.6469 9.61812 19.586 9.61812ZM20.7088 16.4412C20.708 17.1681 20.7068 18.0682 20.7057 19.2711C20.7035 21.515 19.0095 23.3448 16.9296 23.3448H11.9769C10.6135 23.3448 9.35165 22.5435 8.68396 21.2605L4.41823 13.0636L4.62876 12.8879C4.63409 12.8836 4.63921 12.8785 4.64434 12.874C5.00647 12.5331 5.49378 12.3581 5.98996 12.3906C6.49718 12.4294 6.96517 12.6774 7.28236 13.075L8.51818 14.5787C8.6262 14.7106 8.80559 14.7601 8.96606 14.7027C9.12653 14.6454 9.23377 14.4932 9.23377 14.3229L9.24106 3.97265C9.24145 3.29491 9.754 2.74353 10.3722 2.74353C10.9904 2.74353 11.503 3.2955 11.503 3.97364V10.2142C11.503 10.2359 11.502 10.2578 11.502 10.2799C11.502 10.2894 11.503 10.299 11.503 10.3083V12.9765C11.503 13.1994 11.6837 13.3802 11.9067 13.3802C12.1296 13.3802 12.3104 13.1994 12.3104 12.9765V10.2278C12.3104 9.57396 12.8099 9.06299 13.4122 9.06299H13.4481C14.0667 9.06299 14.5814 9.60215 14.5814 10.2803V12.7218C14.5814 12.9447 14.7621 13.1255 14.9851 13.1255C15.208 13.1255 15.3888 12.9447 15.3888 12.7218V10.8062C15.3888 10.1279 15.8789 9.57613 16.5008 9.57613C17.1192 9.57613 17.6093 10.1277 17.6093 10.8062V12.6133C17.6093 12.8363 17.7901 13.0171 18.013 13.0171C18.236 13.0171 18.4168 12.8363 18.4168 12.6133V11.6348C18.4168 10.9564 18.9336 10.4256 19.5522 10.4256H19.586C20.203 10.4256 20.7059 10.9655 20.7074 11.6417C20.7124 13.7819 20.7114 14.4985 20.7088 16.4412Z"/>
</mask>
<path d="M19.586 9.61812H19.5522C19.0919 9.61556 18.6472 9.78469 18.3048 10.0924C18.0276 9.32538 17.3233 8.774 16.4983 8.774C15.9926 8.77755 15.5097 8.98513 15.1594 9.35002C14.8372 8.69791 14.191 8.25554 13.4481 8.25554H13.4122C13.014 8.24943 12.6254 8.37895 12.3104 8.6226V3.97364C12.3104 2.85018 11.4357 1.93628 10.3718 1.93628C9.30907 1.93628 8.43893 2.84959 8.43834 3.97226L8.42947 13.1961L7.90746 12.5621C7.44972 11.9922 6.77592 11.6383 6.04693 11.5849C5.33292 11.536 4.63054 11.7844 4.10617 12.2717L3.65197 12.648C3.50551 12.7695 3.46371 12.9765 3.55144 13.1452L7.96739 21.6335C8.77484 23.1847 10.3111 24.1525 11.9767 24.1525H16.9533V24.1481C19.4765 24.1481 21.5224 21.9586 21.5249 19.2701C21.5259 18.0672 21.5214 17.1706 21.5222 16.444C21.5247 14.4999 21.5228 13.7825 21.5178 11.6407C21.5153 10.5198 20.6469 9.61812 19.586 9.61812ZM20.7088 16.4412C20.708 17.1681 20.7068 18.0682 20.7057 19.2711C20.7035 21.515 19.0095 23.3448 16.9296 23.3448H11.9769C10.6135 23.3448 9.35165 22.5435 8.68396 21.2605L4.41823 13.0636L4.62876 12.8879C4.63409 12.8836 4.63921 12.8785 4.64434 12.874C5.00647 12.5331 5.49378 12.3581 5.98996 12.3906C6.49718 12.4294 6.96517 12.6774 7.28236 13.075L8.51818 14.5787C8.6262 14.7106 8.80559 14.7601 8.96606 14.7027C9.12653 14.6454 9.23377 14.4932 9.23377 14.3229L9.24106 3.97265C9.24145 3.29491 9.754 2.74353 10.3722 2.74353C10.9904 2.74353 11.503 3.2955 11.503 3.97364V10.2142C11.503 10.2359 11.502 10.2578 11.502 10.2799C11.502 10.2894 11.503 10.299 11.503 10.3083V12.9765C11.503 13.1994 11.6837 13.3802 11.9067 13.3802C12.1296 13.3802 12.3104 13.1994 12.3104 12.9765V10.2278C12.3104 9.57396 12.8099 9.06299 13.4122 9.06299H13.4481C14.0667 9.06299 14.5814 9.60215 14.5814 10.2803V12.7218C14.5814 12.9447 14.7621 13.1255 14.9851 13.1255C15.208 13.1255 15.3888 12.9447 15.3888 12.7218V10.8062C15.3888 10.1279 15.8789 9.57613 16.5008 9.57613C17.1192 9.57613 17.6093 10.1277 17.6093 10.8062V12.6133C17.6093 12.8363 17.7901 13.0171 18.013 13.0171C18.236 13.0171 18.4168 12.8363 18.4168 12.6133V11.6348C18.4168 10.9564 18.9336 10.4256 19.5522 10.4256H19.586C20.203 10.4256 20.7059 10.9655 20.7074 11.6417C20.7124 13.7819 20.7114 14.4985 20.7088 16.4412Z" fill="#FF6418"/>
<path d="M19.5522 9.61812L19.5467 10.6169H19.5522V9.61812ZM18.3048 10.0924L17.3654 10.4319L17.8694 11.8266L18.9724 10.8353L18.3048 10.0924ZM16.4983 8.774V7.77517L16.4913 7.77522L16.4983 8.774ZM15.1594 9.35002L14.2638 9.79236L14.8942 11.0685L15.8799 10.0417L15.1594 9.35002ZM13.4122 8.25554L13.3968 9.25423L13.4045 9.25434H13.4122V8.25554ZM12.3104 8.6226H11.3116V10.6578L12.9215 9.41266L12.3104 8.6226ZM8.43834 3.97226L9.43714 3.97322V3.97278L8.43834 3.97226ZM8.42947 13.1961L7.65841 13.8309L9.42559 15.9772L9.42827 13.197L8.42947 13.1961ZM7.90746 12.5621L7.12868 13.1876L7.1364 13.197L7.90746 12.5621ZM6.04693 11.5849L6.11993 10.5888L6.11516 10.5884L6.04693 11.5849ZM4.10617 12.2717L4.74341 13.0408L4.76529 13.0227L4.7861 13.0034L4.10617 12.2717ZM3.65197 12.648L3.01473 11.8789L3.01449 11.8791L3.65197 12.648ZM3.55144 13.1452L2.66523 13.6059L2.66537 13.6062L3.55144 13.1452ZM7.96739 21.6335L7.08132 22.0945L7.08143 22.0947L7.96739 21.6335ZM16.9533 24.1525V25.1513H17.9521V24.1525H16.9533ZM16.9533 24.1481V23.1493H15.9545V24.1481H16.9533ZM21.5249 19.2701L22.5237 19.271V19.2709L21.5249 19.2701ZM21.5222 16.444L20.5234 16.4427V16.4429L21.5222 16.444ZM21.5178 11.6407L20.519 11.643V11.643L21.5178 11.6407ZM20.7088 16.4412L19.71 16.4399V16.4402L20.7088 16.4412ZM20.7057 19.2711L19.7069 19.2701V19.2701L20.7057 19.2711ZM8.68396 21.2605L7.79796 21.7216L7.79797 21.7216L8.68396 21.2605ZM4.41823 13.0636L3.77838 12.2966L3.16113 12.8116L3.53222 13.5247L4.41823 13.0636ZM4.62876 12.8879L3.99781 12.1136L3.98892 12.121L4.62876 12.8879ZM4.64434 12.874L5.30612 13.622L5.31767 13.6118L5.32889 13.6013L4.64434 12.874ZM5.98996 12.3906L6.06621 11.3946L6.05529 11.3939L5.98996 12.3906ZM7.28236 13.075L6.50155 13.6979L6.50609 13.7036L6.51071 13.7092L7.28236 13.075ZM8.51818 14.5787L9.29085 13.9458L9.28982 13.9446L8.51818 14.5787ZM8.96606 14.7027L8.62983 13.7622L8.96606 14.7027ZM9.23377 14.3229L8.23496 14.3222V14.3229H9.23377ZM9.24106 3.97265L10.2399 3.97336V3.97323L9.24106 3.97265ZM20.7074 11.6417L21.7062 11.6394L21.7062 11.6393L20.7074 11.6417ZM19.586 8.61932H19.5522V10.6169H19.586V8.61932ZM19.5578 8.61933C18.8489 8.61539 18.1642 8.87586 17.6372 9.34952L18.9724 10.8353C19.1302 10.6935 19.3349 10.6157 19.5467 10.6169L19.5578 8.61933ZM19.2441 9.75298C18.8398 8.63404 17.7888 7.7752 16.4983 7.7752V9.7728C16.8578 9.7728 17.2154 10.0167 17.3654 10.4319L19.2441 9.75298ZM16.4913 7.77522C15.7164 7.78066 14.976 8.09875 14.4388 8.65831L15.8799 10.0417C16.0433 9.8715 16.2688 9.77444 16.5053 9.77278L16.4913 7.77522ZM16.0549 8.90768C15.5798 7.94585 14.6045 7.25674 13.4481 7.25674V9.25434C13.7775 9.25434 14.0947 9.44996 14.2638 9.79236L16.0549 8.90768ZM13.4481 7.25674H13.4122V9.25434H13.4481V7.25674ZM13.4275 7.25686C12.8027 7.24727 12.1933 7.45046 11.6993 7.83255L12.9215 9.41266C13.0575 9.30743 13.2252 9.25159 13.3968 9.25423L13.4275 7.25686ZM13.3092 8.6226V3.97364H11.3116V8.6226H13.3092ZM13.3092 3.97364C13.3092 2.34417 12.0319 0.937477 10.3718 0.937477V2.93508C10.8396 2.93508 11.3116 3.3562 11.3116 3.97364H13.3092ZM10.3718 0.937477C8.71011 0.937477 7.44039 2.34642 7.43954 3.97173L9.43714 3.97278C9.43747 3.35276 9.90803 2.93508 10.3718 2.93508V0.937477ZM7.43954 3.9713L7.43067 13.1951L9.42827 13.197L9.43714 3.97322L7.43954 3.9713ZM9.20053 12.5612L8.67852 11.9272L7.1364 13.197L7.65841 13.8309L9.20053 12.5612ZM8.68618 11.9366C8.05481 11.1505 7.12537 10.6625 6.11993 10.5888L5.97393 12.581C6.42648 12.6142 6.84463 12.8338 7.12874 13.1875L8.68618 11.9366ZM6.11516 10.5884C5.12608 10.5207 4.15286 10.8648 3.42624 11.5401L4.7861 13.0034C5.10822 12.704 5.53975 12.5513 5.9787 12.5814L6.11516 10.5884ZM3.46892 11.5026L3.01473 11.8789L4.28922 13.4171L4.74341 13.0408L3.46892 11.5026ZM3.01449 11.8791C2.50576 12.3009 2.36068 13.0201 2.66523 13.6059L4.43764 12.6845C4.56675 12.9328 4.50525 13.238 4.28946 13.4169L3.01449 11.8791ZM2.66537 13.6062L7.08132 22.0945L8.85346 21.1725L4.4375 12.6842L2.66537 13.6062ZM7.08143 22.0947C8.0493 23.9541 9.91426 25.1513 11.9767 25.1513V23.1537C10.7079 23.1537 9.50038 22.4154 8.85335 21.1723L7.08143 22.0947ZM11.9767 25.1513H16.9533V23.1537H11.9767V25.1513ZM17.9521 24.1525V24.1481H15.9545V24.1525H17.9521ZM16.9533 25.1469C20.0895 25.1469 22.5207 22.447 22.5237 19.271L20.5261 19.2691C20.524 21.4702 18.8636 23.1493 16.9533 23.1493V25.1469ZM22.5237 19.2709C22.5248 18.0217 22.5202 17.2102 22.521 16.4451L20.5234 16.4429C20.5226 17.131 20.5271 18.1127 20.5261 19.2693L22.5237 19.2709ZM22.521 16.4453C22.5235 14.4993 22.5216 13.7804 22.5166 11.6384L20.519 11.643C20.524 13.7846 20.5259 14.5005 20.5234 16.4427L22.521 16.4453ZM22.5166 11.6384C22.5129 10.0102 21.24 8.61932 19.586 8.61932V10.6169C20.0538 10.6169 20.5176 11.0294 20.519 11.643L22.5166 11.6384ZM19.71 16.4402C19.7092 17.1666 19.708 18.0672 19.7069 19.2701L21.7045 19.2721C21.7056 18.0691 21.7068 17.1695 21.7076 16.4423L19.71 16.4402ZM19.7069 19.2701C19.7052 21.0368 18.3871 22.346 16.9296 22.346V24.3436C19.632 24.3436 21.7018 21.9932 21.7045 19.272L19.7069 19.2701ZM16.9296 22.346H11.9769V24.3436H16.9296V22.346ZM11.9769 22.346C11.0155 22.346 10.0797 21.779 9.56996 20.7994L7.79797 21.7216C8.62355 23.308 10.2115 24.3436 11.9769 24.3436V22.346ZM9.56997 20.7995L5.30423 12.6025L3.53222 13.5247L7.79796 21.7216L9.56997 20.7995ZM5.05807 13.8305L5.2686 13.6549L3.98892 12.121L3.77838 12.2966L5.05807 13.8305ZM5.25968 13.6623C5.27457 13.6501 5.28681 13.6395 5.29552 13.6318C5.30411 13.6241 5.31101 13.6178 5.31437 13.6147C5.31606 13.6131 5.31762 13.6117 5.31807 13.6113C5.31883 13.6106 5.31852 13.6108 5.31802 13.6113C5.31711 13.6121 5.31251 13.6164 5.30612 13.622L3.98255 12.1259C3.97361 12.1338 3.96644 12.1404 3.96296 12.1436C3.96118 12.1452 3.95958 12.1467 3.95905 12.1472C3.95821 12.148 3.95848 12.1477 3.95888 12.1474C3.95965 12.1466 3.96395 12.1427 3.96993 12.1374C3.97602 12.132 3.98562 12.1236 3.99785 12.1136L5.25968 13.6623ZM5.32889 13.6013C5.48928 13.4503 5.70499 13.3728 5.92462 13.3872L6.05529 11.3939C5.28256 11.3433 4.52366 11.6159 3.95978 12.1466L5.32889 13.6013ZM5.91371 13.3865C6.14423 13.4041 6.35711 13.5168 6.50155 13.6979L8.06316 12.4522C7.57323 11.838 6.85013 11.4547 6.06621 11.3947L5.91371 13.3865ZM6.51071 13.7092L7.74653 15.2129L9.28982 13.9446L8.054 12.4409L6.51071 13.7092ZM7.74551 15.2117C8.12182 15.6711 8.7455 15.8423 9.30229 15.6433L8.62983 13.7622C8.86568 13.6779 9.13059 13.7502 9.29085 13.9458L7.74551 15.2117ZM9.30229 15.6433C9.85989 15.4439 10.2326 14.9154 10.2326 14.3229H8.23496C8.23496 14.071 8.39316 13.8468 8.62983 13.7622L9.30229 15.6433ZM10.2326 14.3236L10.2399 3.97336L8.24226 3.97195L8.23496 14.3222L10.2326 14.3236ZM10.2399 3.97323C10.2399 3.88727 10.2722 3.82113 10.3088 3.78144C10.345 3.74229 10.3697 3.74234 10.3722 3.74234V1.74473C9.12841 1.74473 8.24293 2.82017 8.24226 3.97207L10.2399 3.97323ZM10.3722 3.74234C10.3743 3.74234 10.3989 3.74213 10.4351 3.78138C10.4718 3.82114 10.5041 3.88747 10.5041 3.97364H12.5018C12.5018 2.82167 11.6167 1.74473 10.3722 1.74473V3.74234ZM10.5041 3.97364V10.2142H12.5018V3.97364H10.5041ZM10.5041 10.2142C10.5041 10.2119 10.5042 10.2115 10.5039 10.2244C10.5037 10.2336 10.5032 10.2558 10.5032 10.2799H12.5008C12.5008 10.2819 12.5007 10.2821 12.501 10.2694C12.5012 10.2605 12.5018 10.2383 12.5018 10.2142H10.5041ZM10.5032 10.2799C10.5032 10.2992 10.5037 10.3152 10.5041 10.3257C10.5045 10.3356 10.5049 10.3444 10.505 10.3458C10.5051 10.3474 10.5051 10.347 10.505 10.3463C10.505 10.3455 10.5049 10.3434 10.5048 10.3404C10.5045 10.3347 10.5041 10.3232 10.5041 10.3083H12.5018C12.5018 10.2887 12.5012 10.2725 12.5008 10.2621C12.5006 10.2568 12.5004 10.2523 12.5003 10.2491C12.5001 10.2461 12.5 10.2433 12.4999 10.2425C12.4997 10.2391 12.5 10.2432 12.5002 10.2483C12.5004 10.2541 12.5008 10.2653 12.5008 10.2799H10.5032ZM10.5041 10.3083V12.9765H12.5018V10.3083H10.5041ZM10.5041 12.9765C10.5041 13.751 11.1321 14.379 11.9067 14.379V12.3814C12.2353 12.3814 12.5018 12.6478 12.5018 12.9765H10.5041ZM11.9067 14.379C12.6813 14.379 13.3092 13.751 13.3092 12.9765H11.3116C11.3116 12.6478 11.578 12.3814 11.9067 12.3814V14.379ZM13.3092 12.9765V10.2278H11.3116V12.9765H13.3092ZM13.3092 10.2278C13.3092 10.1594 13.334 10.1149 13.3576 10.0902C13.3815 10.0652 13.401 10.0618 13.4122 10.0618V8.06419C12.216 8.06419 11.3116 9.06564 11.3116 10.2278H13.3092ZM13.4122 10.0618H13.4481V8.06419H13.4122V10.0618ZM13.4481 10.0618C13.4587 10.0618 13.485 10.0652 13.5183 10.1008C13.5517 10.1363 13.5826 10.1967 13.5826 10.2803H15.5802C15.5802 9.11143 14.6773 8.06419 13.4481 8.06419V10.0618ZM13.5826 10.2803V12.7218H15.5802V10.2803H13.5826ZM13.5826 12.7218C13.5826 13.4963 14.2105 14.1243 14.9851 14.1243V12.1267C15.3138 12.1267 15.5802 12.3931 15.5802 12.7218H13.5826ZM14.9851 14.1243C15.7597 14.1243 16.3876 13.4963 16.3876 12.7218H14.39C14.39 12.3931 14.6564 12.1267 14.9851 12.1267V14.1243ZM16.3876 12.7218V10.8062H14.39V12.7218H16.3876ZM16.3876 10.8062C16.3876 10.7072 16.4232 10.6393 16.4543 10.6046C16.4829 10.5728 16.4987 10.5749 16.5008 10.5749V8.57733C15.23 8.57733 14.39 9.67885 14.39 10.8062H16.3876ZM16.5008 10.5749C16.5047 10.5749 16.5068 10.5753 16.5109 10.5773C16.5162 10.5797 16.5283 10.5868 16.5435 10.6038C16.5749 10.6387 16.6105 10.707 16.6105 10.8062H18.6081C18.6081 9.68073 17.77 8.57733 16.5008 8.57733V10.5749ZM16.6105 10.8062V12.6133H18.6081V10.8062H16.6105ZM16.6105 12.6133C16.6105 13.3879 17.2385 14.0159 18.013 14.0159V12.0183C18.3417 12.0183 18.6081 12.2847 18.6081 12.6133H16.6105ZM18.013 14.0159C18.7876 14.0159 19.4156 13.3879 19.4156 12.6133H17.418C17.418 12.2847 17.6844 12.0183 18.013 12.0183V14.0159ZM19.4156 12.6133V11.6348H17.418V12.6133H19.4156ZM19.4156 11.6348C19.4156 11.5531 19.4454 11.4966 19.4768 11.4636C19.5086 11.4301 19.5363 11.4244 19.5522 11.4244V9.42677C18.334 9.42677 17.418 10.4541 17.418 11.6348H19.4156ZM19.5522 11.4244H19.586V9.42677H19.5522V11.4244ZM19.586 11.4244C19.5928 11.4244 19.6138 11.4254 19.6443 11.4583C19.6757 11.4923 19.7084 11.5545 19.7086 11.644L21.7062 11.6393C21.7036 10.4894 20.8276 9.42677 19.586 9.42677V11.4244ZM19.7086 11.644C19.7136 13.7825 19.7126 14.4978 19.71 16.4399L21.7076 16.4426C21.7102 14.4992 21.7112 13.7813 21.7062 11.6394L19.7086 11.644Z" fill="#FF6418" mask="url(#path-1-inside-1_8136_39484)"/>
<path d="M7.15568 4.14757C7.37864 4.14757 7.55941 3.9668 7.55941 3.74384C7.56591 2.20326 8.81671 0.957975 10.3571 0.957975C11.8977 0.957975 13.1483 2.20326 13.1548 3.74384C13.1548 3.9668 13.3356 4.14757 13.5585 4.14757C13.7815 4.14757 13.9622 3.9668 13.9622 3.74384C13.9548 1.75794 12.343 0.1521 10.3571 0.1521C8.37139 0.1521 6.75944 1.75794 6.75195 3.74384C6.75195 3.9668 6.93272 4.14757 7.15568 4.14757Z" fill="#FF6418"/>
</g>
<defs>
<clipPath id="clip0_8136_39484">
<rect width="24" height="24" fill="white" transform="translate(0.5 0.1521)"/>
</clipPath>
</defs>
</svg>
