<svg width="18" height="20" viewBox="0 0 18 20" fill="none" xmlns="http://www.w3.org/2000/svg">
<path d="M15.7145 7.67918C15.7145 7.67918 15.2167 13.8529 14.928 16.4535C14.7905 17.6956 14.0232 18.4234 12.7665 18.4464C10.3749 18.4894 7.98055 18.4922 5.58989 18.4418C4.3808 18.417 3.62639 17.68 3.49164 16.4599C3.20105 13.8364 2.70605 7.67918 2.70605 7.67918" stroke="#200E32" stroke-width="1.5" stroke-linecap="round" stroke-linejoin="round"/>
<path d="M16.9825 4.71972H1.43768" stroke="#200E32" stroke-width="1.5" stroke-linecap="round" stroke-linejoin="round"/>
<path d="M13.9872 4.71972C13.2676 4.71972 12.648 4.21097 12.5068 3.50605L12.284 2.39139C12.1465 1.87714 11.6809 1.52147 11.1501 1.52147H7.26988C6.73913 1.52147 6.27347 1.87714 6.13597 2.39139L5.91322 3.50605C5.77205 4.21097 5.15238 4.71972 4.4328 4.71972" stroke="#200E32" stroke-width="1.5" stroke-linecap="round" stroke-linejoin="round"/>
</svg>
