<svg width="60" height="60" viewBox="0 0 60 60" fill="none" xmlns="http://www.w3.org/2000/svg">
<circle cx="30" cy="30" r="30" fill="#F9F9F9"/>
<g clip-path="url(#clip0_152_2998)">
<path fill-rule="evenodd" clip-rule="evenodd" d="M21.4171 41.6999H23.16V47.5114C23.16 48.8371 24.3771 49.9999 25.7714 49.9999C27.1657 49.9999 28.3857 48.8371 28.3857 47.5114V41.6999H31.8714V47.5114C31.8714 48.8371 33.0914 49.9999 34.4857 49.9999C35.8799 49.9999 37.0999 48.8371 37.0999 47.5114V41.6999H38.8428C39.8885 41.6999 40.5857 41.0371 40.5857 40.0428L40.5828 22.9571H19.6742V40.0428C19.6742 41.0371 20.3714 41.6999 21.4171 41.6999ZM15.94 22.5171C14.7457 22.5171 13.7 23.7714 13.7 25.2028V37.7514C13.7 39.1857 14.7457 40.4399 15.94 40.4399C17.1342 40.4399 18.18 39.1857 18.18 37.7542V25.2028C18.18 23.7685 17.1342 22.5142 15.94 22.5142V22.5171ZM42.0771 25.2028V37.7514C42.0771 39.1857 43.1228 40.4399 44.32 40.4399C45.5142 40.4399 46.5599 39.1857 46.5599 37.7542V25.2028C46.5599 23.7685 45.5142 22.5142 44.32 22.5142C43.1228 22.5142 42.0771 23.7685 42.0771 25.1999V25.2028ZM38.4942 11.4571C38.5765 11.3842 38.6423 11.2946 38.6873 11.1944C38.7324 11.0942 38.7557 10.9855 38.7557 10.8757C38.7557 10.7658 38.7324 10.6571 38.6873 10.5569C38.6423 10.4567 38.5765 10.3671 38.4942 10.2942C38.3313 10.1346 38.1123 10.0451 37.8842 10.0451C37.6561 10.0451 37.4371 10.1346 37.2742 10.2942L34.6571 12.7828C33.44 11.9514 31.8714 11.6199 30.1285 11.6199C28.5049 11.5943 26.8965 11.9352 25.4228 12.6171L22.9857 10.1257C22.5358 9.95942 22.0413 9.95942 21.5914 10.1257C21.4172 10.5514 21.4172 11.0285 21.5914 11.4542L23.8571 13.6114C21.4171 15.4399 19.6742 18.2628 19.6742 21.5199H40.5857C40.5764 19.943 40.1729 18.3933 39.4119 17.0121C38.6509 15.6308 37.5566 14.4618 36.2285 13.6114L38.4942 11.4571ZM27.3371 18.7428H24.3685V15.7599H27.3371V18.7428ZM33.0085 18.7428V15.7599H35.9742V18.7428H33.0085Z" fill="#727474"/>
</g>
<defs>
<clipPath id="clip0_152_2998">
<rect width="40" height="40" fill="white" transform="translate(10 10)"/>
</clipPath>
</defs>
</svg>
