<svg width="14" height="16" viewBox="0 0 14 16" fill="none" xmlns="http://www.w3.org/2000/svg">
<path fill-rule="evenodd" clip-rule="evenodd" d="M10.0092 14.3334H4.44398C2.39974 14.3334 0.831475 13.595 1.27694 10.6232L1.79562 6.59575C2.07022 5.11292 3.01607 4.54541 3.84597 4.54541H10.6316C11.4737 4.54541 12.3647 5.15563 12.682 6.59575L13.2007 10.6232C13.579 13.2594 12.0534 14.3334 10.0092 14.3334Z" stroke="white" stroke-width="1.5" stroke-linecap="round" stroke-linejoin="round"/>
<path d="M10.1007 4.39895C10.1007 2.80823 8.81117 1.5187 7.22045 1.5187V1.5187C6.45445 1.51546 5.71871 1.81748 5.17592 2.35798C4.63312 2.89848 4.328 3.63294 4.328 4.39895H4.328" stroke="white" stroke-width="1.5" stroke-linecap="round" stroke-linejoin="round"/>
<path d="M9.19756 7.40124H9.16705" stroke="white" stroke-width="1.5" stroke-linecap="round" stroke-linejoin="round"/>
<path d="M5.31048 7.40124H5.27997" stroke="white" stroke-width="1.5" stroke-linecap="round" stroke-linejoin="round"/>
</svg>
