<svg width="25" height="24" viewBox="0 0 25 24" fill="none" xmlns="http://www.w3.org/2000/svg">
<path fill-rule="evenodd" clip-rule="evenodd" d="M15.2967 7.636C15.1883 7.24319 14.9853 6.88294 14.7054 6.58681C14.4255 6.29068 14.0772 6.06771 13.6911 5.93743C13.305 5.80715 12.8929 5.77354 12.4907 5.83954C12.0886 5.90554 11.7089 6.06914 11.3847 6.316C10.9515 6.64676 10.6389 7.11047 10.4947 7.636H15.2957H15.2967ZM10.5637 5.965C10.9831 5.54571 11.5079 5.24736 12.0828 5.10141C12.6576 4.95547 13.2612 4.96734 13.8299 5.13576C14.3986 5.30419 14.9112 5.62294 15.3139 6.05841C15.7165 6.49387 15.9942 7.02991 16.1177 7.61L16.1227 7.636H21.7427C21.8791 7.636 22.01 7.69021 22.1065 7.7867C22.203 7.88319 22.2572 8.01405 22.2572 8.1505C22.2572 8.28696 22.203 8.41782 22.1065 8.51431C22.01 8.6108 21.8791 8.665 21.7427 8.665H20.8857V11.825L21.8017 10.909C21.8995 10.8205 22.0275 10.773 22.1594 10.7763C22.2912 10.7796 22.4167 10.8334 22.51 10.9267C22.6032 11.0199 22.6571 11.1455 22.6604 11.2773C22.6637 11.4092 22.6161 11.5372 22.5277 11.635L20.8857 13.278V17.463C20.8857 18.0081 20.6692 18.5309 20.2838 18.9165C19.8985 19.302 19.3758 19.5187 18.8307 19.519H6.49667C5.95155 19.519 5.42875 19.3025 5.04321 18.9172C4.65766 18.5318 4.44093 18.0091 4.44067 17.464V13.267L2.81067 11.637C2.71951 11.5397 2.66974 11.4107 2.67188 11.2774C2.67402 11.1441 2.72788 11.0168 2.82211 10.9224C2.91634 10.8281 3.04355 10.774 3.17688 10.7717C3.3102 10.7694 3.43921 10.819 3.53667 10.91L4.44067 11.813V8.665H3.58367C3.44734 8.665 3.31661 8.61085 3.22021 8.51446C3.12382 8.41806 3.06967 8.28733 3.06967 8.151C3.06967 8.01468 3.12382 7.88395 3.22021 7.78755C3.31661 7.69116 3.44734 7.637 3.58367 7.637H9.66667L9.67167 7.611C9.80422 6.98794 10.1144 6.41659 10.5647 5.966V5.965H10.5637ZM19.9267 8.83H5.40067V12.838C5.44339 12.9535 5.44339 13.0805 5.40067 13.196V17.464C5.40067 17.608 5.42905 17.7506 5.48419 17.8837C5.53933 18.0167 5.62015 18.1376 5.72203 18.2393C5.82391 18.3411 5.94485 18.4218 6.07794 18.4769C6.21103 18.5319 6.35365 18.5601 6.49767 18.56H18.8317C19.1223 18.56 19.4011 18.4445 19.6067 18.239C19.8122 18.0335 19.9277 17.7547 19.9277 17.464V13.159C19.9009 13.0659 19.9009 12.9671 19.9277 12.874V8.83H19.9267Z" fill="#727474" stroke="#727474" stroke-width="0.2"/>
</svg>
