<svg width="60" height="60" viewBox="0 0 60 60" fill="none" xmlns="http://www.w3.org/2000/svg">
<circle cx="30" cy="30" r="30" fill="#F9F9F9"/>
<g clip-path="url(#clip0_152_2995)">
<path fill-rule="evenodd" clip-rule="evenodd" d="M47.1915 39.3458C46.2515 41.4287 45.8029 42.3572 44.5915 44.1972C42.9057 46.7687 40.5257 49.9687 37.5772 49.9944C34.9543 50.0172 34.2829 48.2887 30.7286 48.3087C27.1743 48.3287 26.4315 50.0229 23.8143 50.0001C20.8629 49.9715 18.6086 47.0858 16.92 44.5144C12.2 37.3315 11.7057 28.8972 14.6172 24.4172C16.6886 21.2315 19.9515 19.3715 23.02 19.3715C26.1457 19.3715 28.1057 21.0829 30.6915 21.0829C33.1972 21.0829 34.7257 19.3687 38.3372 19.3687C41.0686 19.3687 43.9629 20.8544 46.0229 23.4229C39.2686 27.1258 40.3657 36.7715 47.1943 39.3487L47.1915 39.3458Z" fill="#727474"/>
<path fill-rule="evenodd" clip-rule="evenodd" d="M35.5971 16.4943C36.9086 14.8086 37.9057 12.4286 37.5429 10C35.4 10.1486 32.8943 11.5143 31.4286 13.2886C30.0972 14.9029 29 17.2971 29.4286 19.6229C31.7714 19.6971 34.1914 18.2971 35.5971 16.4943Z" fill="#727474"/>
</g>
<defs>
<clipPath id="clip0_152_2995">
<rect width="40" height="40" fill="white" transform="translate(10 10)"/>
</clipPath>
</defs>
</svg>
