<svg width="15" height="17" viewBox="0 0 15 17" fill="none" xmlns="http://www.w3.org/2000/svg">
<path fill-rule="evenodd" clip-rule="evenodd" d="M1 7.37685C1.01201 3.84303 3.88647 0.988032 7.42029 1.00004C10.9541 1.01204 13.8091 3.88651 13.7971 7.42033V7.49279C13.7536 9.78989 12.471 11.9131 10.8986 13.5725C9.99926 14.5064 8.99501 15.3331 7.9058 16.0363C7.61455 16.2882 7.18255 16.2882 6.8913 16.0363C5.26756 14.9794 3.84245 13.645 2.68116 12.0942C1.64613 10.7419 1.05847 9.10054 1 7.39859V7.37685Z" stroke="#727474" stroke-linecap="round" stroke-linejoin="round"/>
<path d="M9.44928 7.50004C9.44928 8.63262 8.53113 9.55076 7.39855 9.55076C6.26597 9.55076 5.34783 8.63262 5.34783 7.50004C5.34783 6.36745 6.26597 5.44931 7.39855 5.44931C8.53113 5.44931 9.44928 6.36745 9.44928 7.50004Z" stroke="#727474" stroke-linecap="round" stroke-linejoin="round"/>
</svg>
