<svg width="32" height="32" viewBox="0 0 32 32" fill="none" xmlns="http://www.w3.org/2000/svg">
<circle cx="16" cy="16" r="16" fill="#FF6418"/>
<path fill-rule="evenodd" clip-rule="evenodd" d="M19.0518 21.2135C18.7705 21.2135 18.5418 21.4422 18.5418 21.7235C18.5418 22.0048 18.7705 22.2328 19.0518 22.2328C19.3332 22.2328 19.5612 22.0048 19.5612 21.7235C19.5612 21.4422 19.3332 21.2135 19.0518 21.2135Z" stroke="white" stroke-linecap="round" stroke-linejoin="round"/>
<path fill-rule="evenodd" clip-rule="evenodd" d="M11.5502 21.2135C11.2689 21.2135 11.0402 21.4422 11.0402 21.7235C11.0402 22.0048 11.2689 22.2328 11.5502 22.2328C11.8315 22.2328 12.0602 22.0048 12.0602 21.7235C12.0602 21.4422 11.8315 21.2135 11.5502 21.2135Z" stroke="white" stroke-linecap="round" stroke-linejoin="round"/>
<path d="M22.1667 10.1666L20.7801 10.4066L20.1381 18.0553C20.0861 18.6786 19.5654 19.1573 18.9401 19.1573H11.6654C11.0681 19.1573 10.5614 18.7186 10.4754 18.1266L9.84275 13.7546C9.76475 13.2153 10.1827 12.7326 10.7274 12.7326H20.5574" stroke="white" stroke-linecap="round" stroke-linejoin="round"/>
<path d="M14.5831 15.1966H12.7344" stroke="white" stroke-linecap="round" stroke-linejoin="round"/>
</svg>
