<svg width="60" height="60" viewBox="0 0 60 60" fill="none" xmlns="http://www.w3.org/2000/svg">
<circle cx="30" cy="30" r="30" fill="#F9F9F9"/>
<path d="M42.7967 16.8999L12.92 28.2633C11.295 28.7449 11.3367 30.3566 12.545 30.7533L20.0167 33.0999L22.89 41.9333C23.245 42.8949 23.515 43.2716 24.1183 43.2716C24.7433 43.2716 24.9733 43.0416 25.6383 42.4766C26.3883 41.7649 27.555 40.6349 29.3867 38.8349L37.1733 44.6116C38.61 45.4066 39.63 44.9883 40.005 43.2733L44.8767 18.9916C45.3967 16.8983 44.1683 16.2716 42.7933 16.8983L42.7967 16.8999ZM21.205 32.5749L38.2167 21.8383C39.05 21.2733 39.32 21.9016 38.9467 22.3416L24.83 35.1083L24.1017 41.4933L21.2067 32.5766L21.205 32.5749Z" fill="#727474"/>
</svg>
